# xmcd
#
# Track frame offsets: 
#        150
#        12975
#        52840
#        83267
#        98077
#        136610
#        167170
#        199730
#        240267
#        272657
#        289760
#        314172
#
# Disc length: 4585 seconds
#
# Revision: 5
# Processed by: cddbd v1.5.1PL2 Copyright (c) Steve Scherf et al.
# Submitted via: ExactAudioCopy v0.95a5
#
DISCID=9311e70c
DTITLE=Ronnie Earl and The Broadcasters - Grateful Heart: Blues and Ballad
DTITLE=s
DYEAR=1996
DGENRE=Blues
TTITLE0=Alabama
TTITLE1=Ice Cream Man
TTITLE2=Drown In My Own Tears
TTITLE3=Still Soul Searching
TTITLE4=Skyman
TTITLE5=Welcome Home
TTITLE6=For Abby
TTITLE7=Isabella
TTITLE8=Little Flower
TTITLE9=Soundcheck
TTITLE10=Mr. B.K.
TTITLE11=Song For A Sun
EXTD=
EXTT0=
EXTT1=
EXTT2=
EXTT3=
EXTT4=
EXTT5=
EXTT6=
EXTT7=
EXTT8=
EXTT9=
EXTT10=
EXTT11=
PLAYORDER=
